0
SECTION
2
HEADER
9
$ACADVER
1
AC1009
9
$INSBASE
10
0.00000
20
0.00000
30
0.00000
9
$EXTMIN
10
-1.26039
20
-1.25980
30
0.00000
9
$EXTMAX
10
8.05032
20
5.04999
30
0.00000
9
$LTSCALE
40
1.00000
9
$INSUNITS
70
6
0
ENDSEC
0
SECTION
2
TABLES
0
TABLE
2
LTYPE
70
1
0
LTYPE
2
CONTINUOUS
70
0
3
Solid line
72
65
73
0
40
0.00000
0
ENDTAB
0
TABLE
2
LAYER
70
4
0
LAYER
2
WALLS
70
0
62
7
6
CONTINUOUS
0
LAYER
2
OPENINGS
70
0
62
1
6
CONTINUOUS
0
LAYER
2
ROOMS
70
0
62
3
6
CONTINUOUS
0
LAYER
2
DIMENSIONS
70
0
62
4
6
CONTINUOUS
0
ENDTAB
0
TABLE
2
STYLE
70
1
0
STYLE
2
STANDARD
70
0
40
0.00000
41
1.00000
50
0.00000
71
0
42
0.22000
3
txt
4

0
ENDTAB
0
ENDSEC
0
SECTION
2
BLOCKS
0
ENDSEC
0
SECTION
2
ENTITIES
0
POLYLINE
8
WALLS
66
1
70
1
10
0.00000
20
0.00000
30
0.00000
0
VERTEX
8
WALLS
10
-0.00028
20
1.55025
30
0.00000
0
VERTEX
8
WALLS
10
1.50001
20
1.55014
30
0.00000
0
VERTEX
8
WALLS
10
1.50000
20
1.40013
30
0.00000
0
VERTEX
8
WALLS
10
-0.00029
20
1.40024
30
0.00000
0
SEQEND
8
WALLS
0
POLYLINE
8
WALLS
66
1
70
1
10
0.00000
20
0.00000
30
0.00000
0
VERTEX
8
WALLS
10
2.42000
20
1.55008
30
0.00000
0
VERTEX
8
WALLS
10
5.50000
20
1.54987
30
0.00000
0
VERTEX
8
WALLS
10
5.49999
20
1.39986
30
0.00000
0
VERTEX
8
WALLS
10
2.41999
20
1.40007
30
0.00000
0
SEQEND
8
WALLS
0
POLYLINE
8
WALLS
66
1
70
1
10
0.00000
20
0.00000
30
0.00000
0
VERTEX
8
WALLS
10
6.40000
20
1.54980
30
0.00000
0
VERTEX
8
WALLS
10
8.00008
20
1.54969
30
0.00000
0
VERTEX
8
WALLS
10
8.00007
20
1.39968
30
0.00000
0
VERTEX
8
WALLS
10
6.39999
20
1.39979
30
0.00000
0
SEQEND
8
WALLS
0
POLYLINE
8
WALLS
66
1
70
1
10
0.00000
20
0.00000
30
0.00000
0
VERTEX
8
WALLS
10
3.85053
20
1.47498
30
0.00000
0
VERTEX
8
WALLS
10
3.85077
20
4.99972
30
0.00000
0
VERTEX
8
WALLS
10
4.00062
20
4.99971
30
0.00000
0
VERTEX
8
WALLS
10
4.00037
20
1.47497
30
0.00000
0
SEQEND
8
WALLS
0
POLYLINE
8
WALLS
66
1
70
1
10
0.00000
20
0.00000
30
0.00000
0
VERTEX
8
WALLS
10
-0.00039
20
0.05076
30
0.00000
0
VERTEX
8
WALLS
10
7.99998
20
0.05020
30
0.00000
0
VERTEX
8
WALLS
10
7.99997
20
-0.04980
30
0.00000
0
VERTEX
8
WALLS
10
-0.00040
20
-0.04924
30
0.00000
0
SEQEND
8
WALLS
0
POLYLINE
8
WALLS
66
1
70
1
10
0.00000
20
0.00000
30
0.00000
0
VERTEX
8
WALLS
10
8.00032
20
4.94943
30
0.00000
0
VERTEX
8
WALLS
10
2.10000
20
4.94984
30
0.00000
0
VERTEX
8
WALLS
10
2.10000
20
5.04984
30
0.00000
0
VERTEX
8
WALLS
10
8.00032
20
5.04943
30
0.00000
0
SEQEND
8
WALLS
0
POLYLINE
8
WALLS
66
1
70
1
10
0.00000
20
0.00000
30
0.00000
0
VERTEX
8
WALLS
10
0.98000
20
4.94992
30
0.00000
0
VERTEX
8
WALLS
10
-0.00005
20
4.94999
30
0.00000
0
VERTEX
8
WALLS
10
-0.00004
20
5.04999
30
0.00000
0
VERTEX
8
WALLS
10
0.98000
20
5.04992
30
0.00000
0
SEQEND
8
WALLS
0
POLYLINE
8
WALLS
66
1
70
1
10
0.00000
20
0.00000
30
0.00000
0
VERTEX
8
WALLS
10
7.94997
20
0.00021
30
0.00000
0
VERTEX
8
WALLS
10
7.95032
20
4.99944
30
0.00000
0
VERTEX
8
WALLS
10
8.05032
20
4.99943
30
0.00000
0
VERTEX
8
WALLS
10
8.04997
20
0.00020
30
0.00000
0
SEQEND
8
WALLS
0
POLYLINE
8
WALLS
66
1
70
1
10
0.00000
20
0.00000
30
0.00000
0
VERTEX
8
WALLS
10
-0.05039
20
0.00076
30
0.00000
0
VERTEX
8
WALLS
10
-0.05004
20
4.99999
30
0.00000
0
VERTEX
8
WALLS
10
0.04996
20
4.99999
30
0.00000
0
VERTEX
8
WALLS
10
0.04961
20
0.00076
30
0.00000
0
SEQEND
8
WALLS
0
POLYLINE
8
OPENINGS
66
1
70
0
10
0.00000
20
0.00000
30
0.00000
0
VERTEX
8
OPENINGS
10
1.50001
20
1.47514
30
0.00000
0
VERTEX
8
OPENINGS
10
2.41999
20
1.47508
30
0.00000
0
SEQEND
8
OPENINGS
0
TEXT
8
OPENINGS
10
1.96000
20
1.56311
30
0.00000
40
0.17600
1
DOOR 0.92
7
STANDARD
72
1
11
1.96000
21
1.56311
31
0.00000
0
POLYLINE
8
OPENINGS
66
1
70
0
10
0.00000
20
0.00000
30
0.00000
0
VERTEX
8
OPENINGS
10
5.49999
20
1.47486
30
0.00000
0
VERTEX
8
OPENINGS
10
6.39999
20
1.47480
30
0.00000
0
SEQEND
8
OPENINGS
0
TEXT
8
OPENINGS
10
5.94999
20
1.56283
30
0.00000
40
0.17600
1
DOOR 0.90
7
STANDARD
72
1
11
5.94999
21
1.56283
31
0.00000
0
POLYLINE
8
OPENINGS
66
1
70
0
10
0.00000
20
0.00000
30
0.00000
0
VERTEX
8
OPENINGS
10
2.10000
20
4.99984
30
0.00000
0
VERTEX
8
OPENINGS
10
0.98000
20
4.99992
30
0.00000
0
SEQEND
8
OPENINGS
0
TEXT
8
OPENINGS
10
1.54000
20
5.08788
30
0.00000
40
0.17600
1
WINDOW 1.12
7
STANDARD
72
1
11
1.54000
21
5.08788
31
0.00000
0
POLYLINE
8
ROOMS
66
1
70
1
10
0.00000
20
0.00000
30
0.00000
0
VERTEX
8
ROOMS
10
-0.00029
20
1.40024
30
0.00000
0
VERTEX
8
ROOMS
10
-0.00039
20
0.00076
30
0.00000
0
VERTEX
8
ROOMS
10
7.99997
20
0.00020
30
0.00000
0
VERTEX
8
ROOMS
10
8.00007
20
1.39968
30
0.00000
0
SEQEND
8
ROOMS
0
POLYLINE
8
ROOMS
66
1
70
1
10
0.00000
20
0.00000
30
0.00000
0
VERTEX
8
ROOMS
10
3.85053
20
1.54998
30
0.00000
0
VERTEX
8
ROOMS
10
3.85077
20
4.99972
30
0.00000
0
VERTEX
8
ROOMS
10
-0.00004
20
4.99999
30
0.00000
0
VERTEX
8
ROOMS
10
-0.00028
20
1.55025
30
0.00000
0
SEQEND
8
ROOMS
0
POLYLINE
8
ROOMS
66
1
70
1
10
0.00000
20
0.00000
30
0.00000
0
VERTEX
8
ROOMS
10
8.00008
20
1.54969
30
0.00000
0
VERTEX
8
ROOMS
10
8.00032
20
4.99943
30
0.00000
0
VERTEX
8
ROOMS
10
4.00062
20
4.99971
30
0.00000
0
VERTEX
8
ROOMS
10
4.00038
20
1.54997
30
0.00000
0
SEQEND
8
ROOMS
0
TEXT
8
DIMENSIONS
10
3.99984
20
0.76622
30
0.00000
40
0.22000
1
R1
7
STANDARD
72
1
11
3.99984
21
0.76622
31
0.00000
0
TEXT
8
DIMENSIONS
10
3.99984
20
0.45822
30
0.00000
40
0.22000
1
11.20 m2
7
STANDARD
72
1
11
3.99984
21
0.45822
31
0.00000
0
TEXT
8
DIMENSIONS
10
1.92524
20
3.34098
30
0.00000
40
0.22000
1
R2
7
STANDARD
72
1
11
1.92524
21
3.34098
31
0.00000
0
TEXT
8
DIMENSIONS
10
1.92524
20
3.03298
30
0.00000
40
0.22000
1
13.28 m2
7
STANDARD
72
1
11
1.92524
21
3.03298
31
0.00000
0
TEXT
8
DIMENSIONS
10
6.00035
20
3.34070
30
0.00000
40
0.22000
1
R3
7
STANDARD
72
1
11
6.00035
21
3.34070
31
0.00000
0
TEXT
8
DIMENSIONS
10
6.00035
20
3.03270
30
0.00000
40
0.22000
1
13.80 m2
7
STANDARD
72
1
11
6.00035
21
3.03270
31
0.00000
0
LINE
8
DIMENSIONS
10
-0.05039
20
-0.70980
30
0.00000
11
8.05032
21
-0.70980
31
0.00000
0
LINE
8
DIMENSIONS
10
-0.71039
20
-0.04980
30
0.00000
11
-0.71039
21
5.04999
31
0.00000
0
TEXT
8
DIMENSIONS
10
3.99996
20
-0.97380
30
0.00000
40
0.22000
1
8.101
7
STANDARD
72
1
11
3.99996
21
-0.97380
31
0.00000
0
TEXT
8
DIMENSIONS
10
-0.97439
20
2.50010
30
0.00000
40
0.22000
1
5.100
7
STANDARD
72
1
11
-0.97439
21
2.50010
31
0.00000
0
ENDSEC
0
EOF
